<svg xmlns="http://www.w3.org/2000/svg" viewBox="0 0 1600 900" role="img" aria-label="amazing-ai meet background">
  <defs>
    <linearGradient id="bg" x1="0" x2="1" y1="0" y2="1">
      <stop offset="0" stop-color="#061126"/>
      <stop offset="0.52" stop-color="#123a73"/>
      <stop offset="1" stop-color="#0f172a"/>
    </linearGradient>
    <radialGradient id="glowA" cx="30%" cy="24%" r="40%">
      <stop offset="0" stop-color="#5fb2ff" stop-opacity="0.72"/>
      <stop offset="1" stop-color="#5fb2ff" stop-opacity="0"/>
    </radialGradient>
    <radialGradient id="glowB" cx="76%" cy="68%" r="36%">
      <stop offset="0" stop-color="#42e3b4" stop-opacity="0.42"/>
      <stop offset="1" stop-color="#42e3b4" stop-opacity="0"/>
    </radialGradient>
  </defs>
  <rect width="1600" height="900" fill="url(#bg)"/>
  <rect width="1600" height="900" fill="url(#glowA)"/>
  <rect width="1600" height="900" fill="url(#glowB)"/>
  <g fill="none" stroke="#ffffff" stroke-opacity="0.12">
    <path d="M-80 670C180 530 302 732 560 592s411-30 634-172 346-119 512-38"/>
    <path d="M-60 740C230 592 338 802 620 660s430-38 660-180 330-118 460-58"/>
    <path d="M-40 814C258 664 400 858 708 726s426-60 674-198 305-102 404-50"/>
  </g>
  <g opacity="0.42">
    <circle cx="204" cy="170" r="3" fill="#fff"/>
    <circle cx="1240" cy="186" r="4" fill="#fff"/>
    <circle cx="1390" cy="536" r="3" fill="#fff"/>
    <circle cx="430" cy="712" r="2" fill="#fff"/>
    <circle cx="916" cy="108" r="2" fill="#fff"/>
  </g>
  <text x="84" y="806" fill="#ffffff" fill-opacity="0.82" font-family="Inter, Arial, sans-serif" font-size="42" font-weight="800">amazing-ai meet</text>
</svg>
